<?xml version="1.0" encoding="utf-8"?>
<!-- Generator: Adobe Illustrator 16.2.0, SVG Export Plug-In . SVG Version: 6.00 Build 0)  -->
<!DOCTYPE svg PUBLIC "-//W3C//DTD SVG 1.1//EN" "http://www.w3.org/Graphics/SVG/1.1/DTD/svg11.dtd">
<svg version="1.1" id="Layer_1" xmlns="http://www.w3.org/2000/svg" xmlns:xlink="http://www.w3.org/1999/xlink" x="0px" y="0px"
	 width="238.007px" height="221.289px" viewBox="0 0 238.007 221.289" enable-background="new 0 0 238.007 221.289"
	 xml:space="preserve">
<path fill="#F6DC6B" d="M53.214,208.792c-15.465-15.259-46.281-67.735-52.072-88.672c-1.474-5.321-1.524-12.085-0.129-17.43
	C6.494,81.687,36.531,28.82,51.768,13.358c3.877-3.934,9.713-7.352,15.039-8.812c20.948-5.742,81.803-6.135,102.828-0.664
	c5.345,1.391,11.229,4.734,15.159,8.614c15.463,15.26,46.279,67.736,52.071,88.669c1.474,5.323,1.523,12.087,0.129,17.432
	c-5.481,21.006-35.518,73.872-50.756,89.333c-3.878,3.936-9.713,7.352-15.038,8.813c-20.949,5.742-81.803,6.135-102.827,0.663
	C63.028,216.016,57.144,212.673,53.214,208.792z"/>
</svg>
