<?xml version="1.0" encoding="utf-8"?>
<!-- Generator: Adobe Illustrator 16.2.0, SVG Export Plug-In . SVG Version: 6.00 Build 0)  -->
<!DOCTYPE svg PUBLIC "-//W3C//DTD SVG 1.1//EN" "http://www.w3.org/Graphics/SVG/1.1/DTD/svg11.dtd">
<svg version="1.1" id="Layer_1" xmlns="http://www.w3.org/2000/svg" xmlns:xlink="http://www.w3.org/1999/xlink" x="0px" y="0px"
	 width="40px" height="40px" viewBox="87.441 37.747 40 40" enable-background="new 87.441 37.747 40 40" xml:space="preserve">
<path fill="#FFFFFF" d="M125.646,49.639c-2.862,2.855-12.676,8.516-16.581,9.563c-0.993,0.267-2.253,0.267-3.246,0
	c-3.906-1.047-13.719-6.707-16.582-9.563c-0.728-0.727-2.319-2.059-1.624,0.541c0.266,0.994,0.896,2.084,1.624,2.81
	c2.862,2.856,12.676,12.61,16.582,13.658c0.993,0.267,2.252,0.267,3.246,0c3.905-1.048,13.719-10.802,16.581-13.658
	c0.728-0.726,1.358-1.815,1.624-2.81C127.965,47.581,126.373,48.913,125.646,49.639z"/>
</svg>
