<?xml version="1.0" encoding="utf-8"?>
<!-- Generator: Adobe Illustrator 16.2.0, SVG Export Plug-In . SVG Version: 6.00 Build 0)  -->
<!DOCTYPE svg PUBLIC "-//W3C//DTD SVG 1.1//EN" "http://www.w3.org/Graphics/SVG/1.1/DTD/svg11.dtd">
<svg version="1.1" id="Layer_1" xmlns="http://www.w3.org/2000/svg" xmlns:xlink="http://www.w3.org/1999/xlink" x="0px" y="0px"
	 width="40px" height="40px" viewBox="5 5 40 40" enable-background="new 5 5 40 40" xml:space="preserve">
<g id="viber" display="none">
	<polyline display="inline" fill="#662D91" points="5,5 45,5 45,45 5,45 	"/>
	<g display="inline">
		<path fill="#FFFFFF" d="M34.029,40.416c-0.329-0.09-0.982-0.189-1.569-0.443C22.158,35.536,14.673,28.27,10.421,17.828
			c-1.426-3.5,0.063-6.455,3.656-7.664c0.645-0.217,1.277-0.232,1.911,0.001c1.533,0.563,5.414,5.905,5.5,7.503
			c0.067,1.226-0.766,1.89-1.593,2.451c-1.562,1.061-1.57,2.405-0.903,3.905c1.509,3.389,4.084,5.72,7.419,7.233
			c1.211,0.55,2.366,0.493,3.194-0.758c1.472-2.229,3.275-2.121,5.248-0.735c0.99,0.694,1.994,1.375,2.936,2.131
			c1.277,1.027,2.893,1.885,2.128,4.041C39.123,38.182,36.376,40.439,34.029,40.416z"/>
		<path fill="#FFFFFF" d="M26.455,9.604c7.234,0.245,13.464,6.868,13.376,14.013c-0.009,0.701,0.244,1.74-0.802,1.719
			c-0.999-0.02-0.738-1.074-0.827-1.774c-0.96-7.586-4.433-11.167-11.964-12.325c-0.625-0.096-1.576,0.04-1.529-0.786
			C24.78,9.228,25.91,9.683,26.455,9.604z"/>
		<path fill="#FFFFFF" d="M36.118,22.336c-0.072,0.524,0.233,1.421-0.612,1.55c-1.145,0.174-0.921-0.873-1.031-1.545
			c-0.768-4.615-2.388-6.308-7.041-7.347c-0.685-0.153-1.75-0.046-1.572-1.102c0.17-1.005,1.125-0.664,1.851-0.577
			C32.357,13.875,36.154,17.907,36.118,22.336z"/>
		<path fill="#FFFFFF" d="M32.582,21.496c0.021,0.584-0.041,1.2-0.732,1.283c-0.498,0.059-0.826-0.36-0.879-0.876
			c-0.189-1.903-1.193-3.028-3.103-3.334c-0.571-0.092-1.134-0.276-0.866-1.048c0.178-0.517,0.65-0.569,1.137-0.581
			C30.199,16.888,32.616,19.358,32.582,21.496z"/>
	</g>
</g>
<g id="whatsApp" display="none">
	<polyline display="inline" fill="#58B84A" points="5,5 45,5 45,45 5,45 	"/>
	<g display="inline">
		
			<linearGradient id="SVGID_1_" gradientUnits="userSpaceOnUse" x1="-513.71" y1="312.3584" x2="-513.71" y2="345.4717" gradientTransform="matrix(1 0 0 -1 539.0098 353.4004)">
			<stop  offset="0" style="stop-color:#58B84A"/>
			<stop  offset="0.5" style="stop-color:#1E9E49"/>
			<stop  offset="1" style="stop-color:#58B84A"/>
		</linearGradient>
		<path display="none" fill="url(#SVGID_1_)" d="M25.318,7.928c-9.167,0-16.576,7.428-16.576,16.558c0,5.37,3.218,9.823,3.218,9.823
			l-2.021,6.023l6.249-2.021c0,0,4.041,2.731,9.13,2.731c9.13,0,16.54-7.409,16.54-16.558C41.857,15.355,34.448,7.928,25.318,7.928z
			"/>
		<path fill="#FFFFFF" d="M25.282,7.035c-9.676,0-17.524,7.831-17.524,17.507c0,4.806,2.527,9.095,2.527,9.095l-3.059,9.328
			l9.61-3.059c0,0,3.558,2.162,8.446,2.162c9.678-0.001,17.491-7.849,17.491-17.526C42.773,14.865,34.96,7.035,25.282,7.035z
			 M25.282,39.258c-4.522,0-8.113-2.427-8.113-2.427l-5.554,1.795l1.796-5.354c0,0-2.859-3.957-2.859-8.729
			c0-8.114,6.584-14.715,14.73-14.715c8.114,0,14.699,6.601,14.699,14.715C39.981,32.673,33.396,39.258,25.282,39.258z"/>
		<path fill="#FFFFFF" d="M18.599,16.928c0,0,0.466-0.299,0.731-0.299c0.233,0,1.364,0,1.364,0s0.365,0.05,0.532,0.449
			c0.166,0.383,1.33,3.11,1.429,3.326c0.1,0.216,0.3,0.731-0.032,1.197c-0.366,0.466-1.131,1.348-1.131,1.348
			s-0.299,0.266-0.033,0.698c0.266,0.432,1.165,1.846,2.36,2.909c1.198,1.08,2.661,1.863,3.391,2.111
			c0.732,0.232,0.898-0.083,1.165-0.449c0.299-0.35,1.165-1.462,1.165-1.462s0.298-0.433,0.864-0.168
			c0.599,0.282,3.459,1.662,3.459,1.662s0.364,0.068,0.398,0.45c0,0.398,0.233,1.563-0.798,2.677
			c-1.03,1.131-3.26,1.646-4.289,1.363c-1.064-0.299-4.523-1.213-6.784-3.31c-2.262-2.11-4.091-4.321-4.822-5.968
			c-0.766-1.63-0.699-2.594-0.666-3.059C16.937,19.954,17.169,17.826,18.599,16.928z"/>
	</g>
</g>
<g id="VK" display="none">
	<polyline display="inline" fill="#335E8A" points="5,5 45,5 45,45 5,45 	"/>
	<g display="inline">
		
			<linearGradient id="SVGID_2_" gradientUnits="userSpaceOnUse" x1="-514.0098" y1="348.4004" x2="-514.0098" y2="308.4004" gradientTransform="matrix(1 0 0 -1 539.0098 353.4004)">
			<stop  offset="0.227" style="stop-color:#335E8A"/>
			<stop  offset="1" style="stop-color:#4F7AA3"/>
		</linearGradient>
		<path display="none" fill="url(#SVGID_2_)" d="M45,38.277C45,41.977,41.977,45,38.279,45H11.721C8.024,45,5,41.977,5,38.277
			V11.722C5,8.024,8.024,5,11.721,5h26.558C41.977,5,45,8.024,45,11.722V38.277z"/>
		<g display="none">
			<g display="inline">
				<defs>
					<path id="SVGID_3_" d="M45,38.277C45,41.977,41.977,45,38.279,45H11.721C8.024,45,5,41.977,5,38.277V11.722
						C5,8.024,8.024,5,11.721,5h26.558C41.977,5,45,8.024,45,11.722V38.277z"/>
				</defs>
				<clipPath id="SVGID_4_">
					<use xlink:href="#SVGID_3_"  overflow="visible"/>
				</clipPath>
				
					<linearGradient id="SVGID_5_" gradientUnits="userSpaceOnUse" x1="-514.0088" y1="358.4551" x2="-514.0088" y2="329.3887" gradientTransform="matrix(1 0 0 -1 539.0098 353.4004)">
					<stop  offset="0" style="stop-color:#B3C5D4"/>
					<stop  offset="1" style="stop-color:#456F95"/>
				</linearGradient>
				<ellipse clip-path="url(#SVGID_4_)" fill="url(#SVGID_5_)" cx="25.001" cy="9.479" rx="24.738" ry="14.533"/>
			</g>
		</g>
		<path display="none" fill="none" stroke="#2C527F" d="M45,38.277C45,41.977,41.977,45,38.279,45H11.721
			C8.024,45,5,41.977,5,38.277V11.722C5,8.024,8.024,5,11.721,5h26.558C41.977,5,45,8.024,45,11.722V38.277z"/>
		<g>
			<g display="none">
				<path display="inline" fill="#231F20" d="M35.5,26.025c-1.096-1.063-1.873-1.761-3.752-2.102v-0.138
					c1.333-0.538,2.37-1.286,3.102-2.252c0.727-0.962,1.096-2.073,1.096-3.332c0-1.082-0.264-2.049-0.801-2.897
					c-0.533-0.841-1.34-1.52-2.432-2.019c-1.049-0.48-2.115-0.786-3.186-0.926c-1.071-0.141-3.467-0.209-5.779-0.209H12.626v26.052
					h12.507c2.077,0,3.799-0.161,5.151-0.489c1.353-0.327,2.595-0.878,3.724-1.644c0.973-0.656,1.74-1.475,2.301-2.473
					c0.558-0.99,0.834-2.113,0.834-3.373C37.143,28.486,36.598,27.089,35.5,26.025z M20.405,17.335h3.186
					c1.113,0,2.028,0.121,2.746,0.363c0.833,0.347,1.249,1.063,1.249,2.144c0,0.978-0.314,1.658-0.943,2.042
					c-0.631,0.385-1.449,0.576-2.458,0.576h-3.778L20.405,17.335L20.405,17.335z M27.055,32.616
					c-0.563,0.272-1.348,0.409-2.354,0.409h-4.295v-6.196h4.372c0.999,0.011,1.772,0.142,2.323,0.396
					c0.986,0.451,1.48,1.281,1.48,2.49C28.581,31.145,28.07,32.111,27.055,32.616z"/>
			</g>
			<g>
				
					<linearGradient id="SVGID_6_" gradientUnits="userSpaceOnUse" x1="-513.5874" y1="340.9434" x2="-513.5874" y2="314.8906" gradientTransform="matrix(1 0 0 -1 539.0098 353.4004)">
					<stop  offset="0" style="stop-color:#FFFFFF"/>
					<stop  offset="1" style="stop-color:#C1C3C6"/>
				</linearGradient>
				<path fill="url(#SVGID_6_)" d="M36.038,26.333c-1.097-1.063-1.874-1.763-3.754-2.102v-0.139c1.334-0.537,2.37-1.285,3.102-2.251
					c0.728-0.963,1.097-2.073,1.097-3.333c0-1.081-0.265-2.048-0.801-2.897c-0.533-0.84-1.341-1.519-2.432-2.018
					c-1.049-0.48-2.114-0.786-3.186-0.926c-1.07-0.141-3.467-0.209-5.778-0.209H13.165V38.51h12.507c2.077,0,3.798-0.162,5.15-0.49
					c1.352-0.328,2.595-0.877,3.724-1.643c0.974-0.656,1.741-1.475,2.3-2.473c0.559-0.991,0.834-2.113,0.834-3.375
					C37.68,28.793,37.134,27.395,36.038,26.333z M20.943,17.642h3.186c1.113,0,2.028,0.121,2.746,0.362
					c0.833,0.348,1.249,1.063,1.249,2.145c0,0.978-0.315,1.658-0.944,2.042c-0.63,0.384-1.449,0.576-2.458,0.576h-3.778
					L20.943,17.642L20.943,17.642z M27.592,32.922c-0.562,0.273-1.347,0.409-2.354,0.409h-4.295v-6.196h4.372
					c0.998,0.012,1.772,0.143,2.322,0.395c0.987,0.453,1.481,1.283,1.481,2.492C29.119,31.45,28.609,32.417,27.592,32.922z"/>
			</g>
		</g>
	</g>
</g>
<g id="Layer_4" display="none">
	<polyline display="inline" fill="#E67E17" points="5,5 45,5 45,45 5,45 	"/>
	<path display="inline" fill="#FFFFFF" d="M25,25.188c4.255,0,7.705-3.449,7.705-7.705c0-4.254-3.45-7.704-7.705-7.704
		s-7.705,3.45-7.705,7.705C17.295,21.739,20.745,25.188,25,25.188z M25,13.693c2.094,0,3.79,1.697,3.79,3.79s-1.696,3.79-3.79,3.79
		s-3.79-1.697-3.79-3.79S22.906,13.693,25,13.693z M33.881,26.128c-0.436-0.874-1.64-1.602-3.241-0.339
		C28.475,27.494,25,27.494,25,27.494s-3.476,0-5.64-1.705c-1.601-1.262-2.806-0.535-3.241,0.339
		c-0.758,1.523,0.098,2.259,2.032,3.501c1.651,1.061,3.92,1.456,5.386,1.604l-1.222,1.223c-1.723,1.723-3.387,3.387-4.541,4.541
		c-0.69,0.689-0.69,1.808,0,2.498l0.208,0.207c0.69,0.689,1.809,0.689,2.499,0l4.539-4.539c1.724,1.723,3.387,3.386,4.541,4.539
		c0.689,0.689,1.809,0.689,2.498,0l0.207-0.207c0.69-0.69,0.69-1.809,0-2.498l-4.54-4.541l-1.227-1.226
		c1.466-0.152,3.712-0.55,5.35-1.602C33.782,28.387,34.639,27.651,33.881,26.128z"/>
</g>
<g id="Layer_5">
	<polyline fill="#C30907" points="5,5 45,5 45,45 5,45 	"/>
	<g>
		<defs>
			<polyline id="SVGID_7_" points="5,5 45,5 45,45 5,45 			"/>
		</defs>
		<clipPath id="SVGID_8_">
			<use xlink:href="#SVGID_7_"  overflow="visible"/>
		</clipPath>
		<g clip-path="url(#SVGID_8_)">
			<path fill="#FFFFFF" d="M22.147,9.083c0.378,0.235,0.804,0.579,1.276,1.029c0.454,0.47,0.899,1.048,1.335,1.734
				c0.416,0.646,0.785,1.41,1.106,2.292c0.265,0.882,0.396,1.911,0.396,3.086c-0.035,2.156-0.511,3.88-1.427,5.173
				c-0.449,0.628-0.925,1.205-1.428,1.734c-0.556,0.529-1.148,1.068-1.777,1.617c-0.359,0.372-0.69,0.794-0.996,1.264
				c-0.358,0.49-0.538,1.059-0.538,1.704c0,0.63,0.184,1.146,0.552,1.56c0.313,0.393,0.617,0.733,0.912,1.029l2.044,1.674
				c1.271,1.039,2.384,2.186,3.341,3.438c0.904,1.274,1.373,2.938,1.41,4.998c0,2.918-1.289,5.506-3.868,7.76
				c-2.674,2.33-6.532,3.537-11.574,3.615c-4.22-0.041-7.372-0.938-9.453-2.699c-2.101-1.646-3.151-3.608-3.151-5.896
				c0-1.115,0.342-2.357,1.025-3.727c0.663-1.369,1.863-2.572,3.601-3.609c1.952-1.115,4.003-1.857,6.15-2.229
				c2.127-0.313,3.894-0.487,5.299-0.528c-0.434-0.57-0.821-1.183-1.161-1.832c-0.396-0.631-0.595-1.39-0.595-2.275
				c0-0.531,0.075-0.975,0.227-1.33c0.133-0.375,0.255-0.719,0.368-1.033c-0.685,0.078-1.33,0.117-1.936,0.117
				c-3.208-0.039-5.653-1.049-7.335-3.028c-1.76-1.841-2.641-3.986-2.641-6.436c0-2.959,1.247-5.643,3.741-8.053
				c1.714-1.41,3.493-2.331,5.34-2.762c1.828-0.372,3.542-0.559,5.141-0.559h12.052l-3.723,2.172L22.147,9.083L22.147,9.083z
				 M24.476,43.771c0-1.529-0.5-2.861-1.497-3.998c-1.056-1.078-2.706-2.4-4.95-3.969c-0.385-0.039-0.835-0.06-1.353-0.06
				c-0.308-0.039-1.095,0-2.36,0.116c-1.247,0.177-2.523,0.461-3.827,0.853c-0.308,0.119-0.739,0.295-1.296,0.529
				C8.636,37.5,8.07,37.861,7.495,38.332c-0.557,0.49-1.027,1.098-1.41,1.822C5.644,40.92,5.423,41.84,5.423,42.92
				c0,2.115,0.959,3.859,2.878,5.23c1.822,1.373,4.316,2.078,7.482,2.117c2.84-0.039,5.009-0.666,6.504-1.881
				C23.745,47.189,24.476,45.652,24.476,43.771z M16.073,26.107c1.586-0.06,2.908-0.628,3.966-1.708
				c0.51-0.766,0.837-1.551,0.982-2.356c0.088-0.805,0.132-1.482,0.132-2.032c0-2.376-0.607-4.771-1.822-7.186
				c-0.57-1.159-1.32-2.102-2.251-2.828c-0.949-0.687-2.041-1.05-3.275-1.09c-1.634,0.04-2.991,0.697-4.073,1.974
				c-0.913,1.335-1.351,2.827-1.311,4.477c0,2.179,0.638,4.448,1.913,6.804c0.617,1.1,1.415,2.032,2.391,2.798
				C13.701,25.725,14.817,26.107,16.073,26.107z"/>
			<polygon id="PLUS" fill="#FFFFFF" points="45.912,13.491 39.589,13.491 39.589,7.168 36.525,7.168 36.525,13.491 30.203,13.491 
				30.203,16.555 36.525,16.555 36.525,22.878 39.589,22.878 39.589,16.555 45.912,16.555 			"/>
		</g>
	</g>
</g>
<g id="Layer_6" display="none">
	<polyline display="inline" fill="#4967A9" points="5,5 45,5 45,45 5,45 	"/>
	<path display="inline" fill="#FFFFFF" d="M33.799,45h-6.886V28.357h-3.441V22.62h3.441v-3.443c0-4.679,1.942-7.462,7.461-7.462
		h4.596v5.737H36.1c-2.148,0-2.291,0.802-2.291,2.297l-0.01,2.871h5.204l-0.608,5.737h-4.596V45z"/>
</g>
</svg>
