<?xml version="1.0" encoding="utf-8"?>
<!-- Generator: Adobe Illustrator 16.2.0, SVG Export Plug-In . SVG Version: 6.00 Build 0)  -->
<!DOCTYPE svg PUBLIC "-//W3C//DTD SVG 1.1//EN" "http://www.w3.org/Graphics/SVG/1.1/DTD/svg11.dtd">
<svg version="1.1" id="Layer_1" xmlns="http://www.w3.org/2000/svg" xmlns:xlink="http://www.w3.org/1999/xlink" x="0px" y="0px"
	 width="221.674px" height="230.83px" viewBox="0 0 221.674 230.83" enable-background="new 0 0 221.674 230.83"
	 xml:space="preserve">
<path display="none" fill-rule="evenodd" clip-rule="evenodd" fill="#00A9F0" d="M299.901,112.25
	c0,104.484-84.705,189.187-189.188,189.187c-104.484,0-189.187-84.703-189.187-189.187c0-104.487,84.703-189.188,189.187-189.188
	C215.196-76.938,299.901,7.762,299.901,112.25z"/>
<path opacity="0.8" fill-rule="evenodd" clip-rule="evenodd" fill="#999999" d="M216.39,144.614
	c-0.666-1.547-0.959-2.977-0.611-4.697c2.539-12.555,2.629-25.145,0.547-37.796c-9.18-55.77-61.727-94.867-117.564-87.317
	c-3.273,0.44-5.981-0.072-8.917-1.639C66.245,0.562,37.384,4.893,18.197,23.738C-0.701,42.295-5.455,71.3,6.652,94.92
	c1.276,2.49,1.67,4.731,1.098,7.496c-1.168,5.663-1.274,11.463-1.536,17.502c0.196,3.371,0.257,7.02,0.636,10.639
	c6.319,60.439,61.679,102.838,121.964,93.41c1.846-0.289,3.391,0.021,5.031,0.848c11.395,5.742,23.626,7.143,35.953,5.176
	C210.103,223.567,232.556,182.144,216.39,144.614z M163.847,172.79c-6.766,7.703-15.287,12.633-24.967,15.42
	c-18.15,5.225-36.502,5.398-54.578-0.041c-16.454-4.953-28.587-15.141-33.417-32.229c-3.427-12.119,4.388-21.174,16.463-19.754
	c5.216,0.613,8.646,3.766,11.091,8.113c1.532,2.729,2.812,5.6,4.185,8.416c4.481,9.193,11.698,14.393,21.964,15.518
	c8.398,0.924,16.521,0.324,24.292-3.195c3.008-1.361,5.666-3.238,7.836-5.744c5.812-6.711,4.764-16.213-2.369-21.496
	c-6.893-5.105-15.164-6.469-23.211-8.264c-11.517-2.568-23.074-5.004-33.903-9.83c-11.195-4.99-20.287-12.237-23.221-24.897
	c-3.403-14.693,0.683-27.111,12.439-36.639c10.372-8.402,22.851-11.119,35.772-12.242c2.988-0.262,6.017-0.04,9.027-0.04
	c11.927-0.323,23.546,1.256,34.322,6.751c8.244,4.206,15.072,9.944,19.043,18.555c1.942,4.213,2.871,8.713,1.62,13.199
	c-1.518,5.451-5.23,9.248-10.861,10.392c-5.865,1.192-11.324,0.263-15.016-5.185c-1.758-2.595-3.451-5.237-5.037-7.938
	c-5.037-8.575-12.22-13.357-22.422-13.323c-4.656,0.018-9.289-0.132-13.85,0.97c-4.091,0.991-7.841,2.697-10.949,5.578
	c-5.543,5.141-5.328,12.21,0.583,16.911c3.895,3.097,8.501,4.823,13.264,6.038c11.173,2.852,22.4,5.495,33.558,8.414
	c6.074,1.588,11.875,3.974,17.506,6.795C179.165,126.159,177.302,157.474,163.847,172.79z"/>
<path fill-rule="evenodd" clip-rule="evenodd" fill="#FFFFFF" d="M216.39,138.614c-0.666-1.547-0.959-2.977-0.611-4.697
	c2.539-12.555,2.629-25.144,0.547-37.796c-9.18-55.77-61.727-94.867-117.564-87.317c-3.273,0.44-5.981-0.072-8.917-1.639
	C66.245-5.438,37.384-1.107,18.197,17.738C-0.701,36.295-5.455,65.3,6.652,88.92c1.276,2.49,1.67,4.731,1.098,7.496
	c-1.168,5.663-1.274,11.464-1.536,17.502c0.196,3.371,0.257,7.02,0.636,10.639c6.319,60.439,61.679,102.838,121.964,93.41
	c1.846-0.289,3.391,0.021,5.031,0.848c11.395,5.742,23.626,7.143,35.953,5.176C210.103,217.567,232.556,176.144,216.39,138.614z
	 M163.847,166.79c-6.766,7.703-15.287,12.633-24.967,15.42c-18.15,5.225-36.502,5.398-54.578-0.041
	c-16.454-4.953-28.587-15.141-33.417-32.229c-3.427-12.119,4.388-21.174,16.463-19.754c5.216,0.613,8.646,3.766,11.091,8.113
	c1.532,2.729,2.812,5.6,4.185,8.416c4.481,9.193,11.698,14.393,21.964,15.518c8.398,0.924,16.521,0.324,24.292-3.195
	c3.008-1.361,5.666-3.238,7.836-5.744c5.812-6.711,4.764-16.213-2.369-21.496c-6.893-5.105-15.164-6.469-23.211-8.264
	c-11.517-2.568-23.074-5.004-33.903-9.83c-11.195-4.99-20.287-12.237-23.221-24.897c-3.403-14.693,0.683-27.111,12.439-36.639
	c10.372-8.402,22.851-11.119,35.772-12.242c2.988-0.262,6.017-0.04,9.027-0.04c11.927-0.323,23.546,1.256,34.322,6.751
	c8.244,4.206,15.072,9.944,19.043,18.555c1.942,4.213,2.871,8.713,1.62,13.199c-1.518,5.451-5.23,9.248-10.861,10.392
	c-5.865,1.192-11.324,0.263-15.016-5.185c-1.758-2.595-3.451-5.237-5.037-7.938c-5.037-8.575-12.22-13.357-22.422-13.323
	c-4.656,0.018-9.289-0.132-13.85,0.97c-4.091,0.991-7.841,2.697-10.949,5.578c-5.543,5.141-5.328,12.21,0.583,16.911
	c3.895,3.097,8.501,4.823,13.264,6.038c11.173,2.852,22.4,5.495,33.558,8.414c6.074,1.588,11.875,3.974,17.506,6.795
	C179.165,120.159,177.302,151.474,163.847,166.79z"/>
</svg>
